<?xml version="1.0" standalone="no"?>
<!DOCTYPE svg PUBLIC "-//W3C//DTD SVG 20010904//EN"
 "http://www.w3.org/TR/2001/REC-SVG-20010904/DTD/svg10.dtd">
<svg version="1.0" xmlns="http://www.w3.org/2000/svg"
 width="2000.000000pt" height="2000.000000pt" viewBox="0 0 2000.000000 2000.000000"
 preserveAspectRatio="xMidYMid meet">
<metadata>
Created by potrace 1.11, written by Peter Selinger 2001-2013
</metadata>
<g transform="translate(0.000000,2000.000000) scale(0.100000,-0.100000)"
fill="#000000" stroke="none">
<path d="M9725 19679 c-1663 -41 -3270 -510 -4715 -1377 -673 -403 -1256 -859
-1830 -1430 -370 -368 -559 -581 -851 -958 -269 -347 -566 -793 -764 -1149
-15 -27 -48 -86 -72 -130 -25 -44 -100 -190 -167 -325 -704 -1413 -1046 -2850
-1046 -4396 0 -905 121 -1779 366 -2642 228 -807 563 -1580 1002 -2317 462
-774 1050 -1498 1730 -2132 1527 -1421 3567 -2347 5667 -2572 595 -64 1245
-70 1825 -15 704 66 1430 217 2100 436 1263 414 2392 1058 3410 1947 205 178
700 674 879 879 1388 1592 2212 3531 2385 5612 51 608 51 1194 0 1770 -104
1189 -432 2347 -971 3430 -321 645 -675 1200 -1117 1750 -430 536 -971 1077
-1496 1496 -735 587 -1531 1057 -2395 1412 -1237 508 -2548 745 -3940 711z
m28 -2236 c-13 -2 -35 -2 -50 0 -16 2 -5 4 22 4 28 0 40 -2 28 -4z m550 0
c-13 -2 -35 -2 -50 0 -16 2 -5 4 22 4 28 0 40 -2 28 -4z m-755 -10 c-10 -2
-28 -2 -40 0 -13 2 -5 4 17 4 22 1 32 -1 23 -4z m950 0 c-10 -2 -28 -2 -40 0
-13 2 -5 4 17 4 22 1 32 -1 23 -4z m-1105 -10 c-7 -2 -19 -2 -25 0 -7 3 -2 5
12 5 14 0 19 -2 13 -5z m1240 0 c-7 -2 -19 -2 -25 0 -7 3 -2 5 12 5 14 0 19
-2 13 -5z m-1350 -10 c-7 -2 -19 -2 -25 0 -7 3 -2 5 12 5 14 0 19 -2 13 -5z
m1460 0 c-7 -2 -19 -2 -25 0 -7 3 -2 5 12 5 14 0 19 -2 13 -5z m-1560 -10 c-7
-2 -19 -2 -25 0 -7 3 -2 5 12 5 14 0 19 -2 13 -5z m1660 0 c-7 -2 -19 -2 -25
0 -7 3 -2 5 12 5 14 0 19 -2 13 -5z m-1746 -9 c-3 -3 -12 -4 -19 -1 -8 3 -5 6
6 6 11 1 17 -2 13 -5z m1830 0 c-3 -3 -12 -4 -19 -1 -8 3 -5 6 6 6 11 1 17 -2
13 -5z m-1980 -20 c-3 -3 -12 -4 -19 -1 -8 3 -5 6 6 6 11 1 17 -2 13 -5z
m2130 0 c-3 -3 -12 -4 -19 -1 -8 3 -5 6 6 6 11 1 17 -2 13 -5z m-2380 -40 c-3
-3 -12 -4 -19 -1 -8 3 -5 6 6 6 11 1 17 -2 13 -5z m1588 -14 c547 -23 975 -76
1427 -176 892 -197 1744 -572 2495 -1096 104 -72 145 -106 149 -124 6 -23 -12
-45 -167 -200 -96 -96 -178 -174 -183 -174 -5 0 -46 26 -90 59 -77 56 -256
174 -327 216 -43 25 -75 44 -119 71 -35 21 -83 48 -190 107 -94 52 -352 182
-420 212 -254 111 -356 155 -366 155 -5 0 -29 9 -52 20 -22 11 -46 20 -52 20
-5 0 -18 4 -28 9 -22 12 -120 48 -152 56 -14 3 -34 10 -45 14 -26 11 -129 43
-240 76 -49 15 -99 29 -110 33 -11 3 -27 7 -35 8 -8 1 -60 14 -115 29 -159 41
-405 93 -525 110 -14 2 -74 11 -135 20 -132 20 -124 19 -300 39 -224 24 -379
31 -720 30 -594 -2 -1077 -60 -1630 -195 -230 -57 -547 -154 -735 -226 -154
-59 -295 -115 -345 -138 -16 -8 -61 -28 -100 -45 -133 -61 -281 -134 -424
-212 -79 -43 -145 -78 -147 -78 -2 0 -23 -13 -47 -30 -25 -16 -47 -30 -50 -30
-4 0 -26 -13 -50 -30 -25 -16 -47 -30 -50 -30 -7 0 -370 -241 -377 -250 -3 -4
-27 -22 -55 -40 -27 -19 -54 -38 -60 -42 -5 -5 -50 -40 -100 -79 -282 -221
-570 -483 -800 -729 -106 -112 -247 -271 -275 -309 -14 -19 -58 -75 -98 -125
-40 -50 -79 -98 -85 -106 -7 -9 -33 -43 -58 -75 -25 -33 -74 -103 -109 -155
-35 -52 -67 -97 -71 -100 -11 -8 -250 -397 -279 -455 -8 -17 -17 -32 -20 -35
-11 -11 -205 -392 -229 -451 -8 -19 -32 -71 -53 -116 -21 -46 -38 -85 -38 -88
0 -3 -9 -27 -21 -53 -29 -65 -48 -113 -55 -137 -1 -5 -16 -44 -32 -85 -55
-141 -135 -385 -183 -560 -5 -19 -12 -42 -14 -50 -2 -8 -13 -53 -25 -100 -11
-47 -24 -101 -29 -120 -19 -71 -56 -245 -71 -335 -49 -284 -82 -556 -98 -815
-13 -195 -6 -733 13 -960 18 -223 29 -318 55 -480 11 -63 24 -149 30 -190 10
-74 34 -189 92 -430 69 -289 167 -596 286 -890 48 -120 56 -138 107 -255 8
-16 56 -118 109 -225 79 -164 124 -248 221 -418 54 -95 119 -198 233 -370
l135 -204 -204 -205 c-112 -112 -211 -208 -220 -213 -14 -8 -36 18 -127 148
-808 1155 -1259 2451 -1342 3857 -18 306 -11 789 15 1050 3 28 8 75 11 105 2
30 7 73 10 95 3 22 7 56 9 75 3 19 7 53 11 75 3 22 5 55 5 73 0 17 5 32 11 32
6 0 8 13 3 36 -5 27 -3 34 6 29 9 -6 10 2 5 30 -5 27 -4 35 5 30 9 -6 10 2 5
30 -5 27 -4 35 5 30 9 -6 10 2 5 31 -5 30 -4 36 4 24 9 -12 10 -6 6 25 -4 30
-3 36 5 25 8 -11 9 -5 5 25 -4 30 -3 36 5 25 8 -11 9 -5 5 25 -4 30 -3 36 5
25 8 -11 9 -5 5 25 -4 30 -3 36 5 25 8 -11 9 -5 6 25 -3 22 -3 33 1 25 3 -8
29 78 58 190 412 1605 1335 3004 2659 4031 692 537 1535 970 2369 1218 503
150 956 238 1476 286 367 34 636 40 1005 25z m-5155 -1684 c0 -2 -8 -10 -17
-17 -16 -13 -17 -12 -4 4 13 16 21 21 21 13z m-70 -59 c0 -2 -10 -12 -22 -23
l-23 -19 19 23 c18 21 26 27 26 19z m-110 -100 c0 -2 -15 -16 -32 -33 l-33
-29 29 33 c28 30 36 37 36 29z m5610 -247 c187 -21 303 -38 440 -65 47 -9 92
-18 100 -19 127 -23 597 -157 685 -196 11 -5 70 -27 130 -50 364 -139 935
-443 935 -498 0 -9 -697 -714 -1549 -1566 -1201 -1201 -1552 -1546 -1564
-1540 -8 5 -307 281 -663 614 -357 333 -786 733 -954 889 -168 156 -336 314
-375 350 -38 36 -135 127 -215 201 -80 74 -176 164 -215 201 -38 36 -142 132
-230 214 -88 82 -206 193 -262 248 l-102 100 33 26 c18 14 45 35 61 46 15 11
39 29 54 41 170 132 498 336 736 457 128 65 283 137 358 168 141 57 140 56
277 107 52 19 130 45 250 82 222 71 635 155 900 185 342 39 851 41 1170 5z
m-5980 -123 c0 -2 -15 -16 -32 -33 l-33 -29 29 33 c28 30 36 37 36 29z m-120
-131 c0 -2 -8 -10 -17 -17 -16 -13 -17 -12 -4 4 13 16 21 21 21 13z m11591
-855 c39 -57 72 -94 90 -102 53 -21 103 -84 205 -255 571 -953 914 -1986 1028
-3095 52 -500 44 -1147 -19 -1669 -40 -328 -123 -747 -207 -1045 -23 -82 -42
-162 -42 -177 -1 -14 -5 -24 -10 -20 -5 3 -7 -5 -4 -16 4 -14 2 -20 -4 -16 -7
5 -9 -3 -4 -22 4 -17 3 -24 -2 -16 -11 17 -45 -90 -35 -113 5 -14 3 -16 -7
-10 -10 6 -12 4 -7 -8 4 -10 2 -17 -4 -17 -6 0 -9 -7 -5 -15 3 -8 1 -15 -5
-15 -6 0 -9 -7 -5 -15 3 -8 1 -15 -5 -15 -6 0 -8 -7 -5 -16 4 -10 2 -13 -6 -8
-7 5 -9 0 -6 -14 4 -14 2 -20 -5 -15 -6 4 -8 0 -4 -10 4 -10 2 -17 -4 -17 -6
0 -9 -6 -6 -14 3 -8 1 -16 -4 -18 -5 -2 -11 -13 -12 -26 0 -12 -5 -22 -10 -22
-5 0 -7 -7 -3 -15 3 -8 1 -15 -5 -15 -6 0 -8 -4 -4 -9 3 -5 1 -12 -5 -16 -6
-4 -8 -11 -5 -16 4 -5 1 -9 -5 -9 -6 0 -9 -4 -5 -9 3 -5 1 -12 -5 -16 -6 -4
-8 -11 -5 -16 4 -5 1 -9 -5 -9 -6 0 -9 -4 -5 -9 3 -5 1 -12 -5 -16 -6 -4 -8
-11 -5 -16 4 -5 1 -9 -4 -9 -6 0 -10 -3 -9 -7 1 -5 -3 -18 -10 -30 -7 -13 -10
-23 -7 -23 3 0 -1 -13 -10 -30 -8 -16 -15 -32 -15 -35 1 -3 -8 -22 -18 -43
-11 -20 -43 -89 -72 -152 -163 -360 -461 -860 -731 -1227 -439 -595 -993
-1151 -1581 -1586 -1054 -779 -2286 -1264 -3583 -1411 -309 -35 -428 -41 -845
-41 -417 0 -536 6 -845 41 -1191 135 -2337 558 -3323 1227 l-163 111 178 178
c119 119 186 179 205 184 24 5 44 -5 119 -56 89 -61 90 -62 146 -56 49 5 62 2
111 -25 31 -17 68 -39 82 -48 78 -55 512 -281 670 -351 30 -13 84 -37 120 -52
36 -16 74 -33 85 -38 183 -80 652 -238 845 -285 30 -7 80 -20 110 -28 30 -8
100 -24 155 -36 55 -12 118 -26 140 -32 22 -5 67 -14 100 -19 158 -27 252 -42
275 -45 14 -1 59 -8 100 -14 88 -13 359 -37 516 -47 185 -11 307 -11 589 -2
410 13 629 33 905 85 74 13 162 28 195 33 205 30 772 186 1015 280 25 10 90
35 145 56 55 20 120 46 145 56 25 11 54 23 65 27 11 4 40 17 65 28 25 12 77
35 115 53 104 48 281 136 355 176 36 20 83 45 105 57 117 62 519 311 580 360
6 4 35 25 65 47 30 22 60 43 65 47 6 4 55 41 110 82 55 41 107 80 115 88 8 7
49 41 90 74 41 34 77 64 80 68 3 4 19 17 35 30 173 132 636 606 849 871 42 52
82 102 89 110 221 273 507 727 719 1140 35 69 77 154 92 190 16 36 42 93 57
128 16 34 29 65 29 67 0 3 9 27 21 53 12 26 25 57 30 70 5 12 13 32 19 45 16
35 68 180 112 312 22 66 44 129 48 140 9 22 19 52 25 82 2 10 13 47 25 83 11
36 27 92 35 125 8 33 19 78 25 100 29 103 92 405 116 560 9 55 17 109 19 120
59 367 82 958 56 1435 -38 666 -198 1394 -452 2040 -11 30 -27 71 -34 90 -51
136 -233 521 -324 685 -19 33 -45 80 -58 105 -57 104 -107 185 -115 188 -4 2
-8 8 -8 13 0 5 -13 31 -30 57 -16 27 -30 57 -30 66 0 10 -27 58 -61 107 -51
74 -60 94 -55 116 10 39 273 303 303 303 16 0 37 -23 84 -89z m-10353 -1234
c92 -85 502 -467 792 -737 162 -152 565 -527 895 -835 1028 -958 1168 -1089
1204 -1123 l34 -34 -1513 -1513 c-1095 -1095 -1517 -1511 -1526 -1504 -21 17
-175 279 -255 434 -135 259 -230 487 -324 770 -217 656 -302 1362 -248 2060 8
105 18 219 23 255 16 112 39 264 45 290 3 14 10 48 15 75 6 28 12 59 14 70 7
37 46 200 56 235 5 19 15 55 21 80 6 25 21 77 34 115 12 39 30 95 39 125 26
86 84 238 141 375 72 170 188 412 253 526 11 20 26 47 34 60 7 13 15 26 19 29
3 3 20 32 38 64 51 92 142 226 153 226 5 0 30 -19 56 -43z m8845 -244 c211
-331 368 -693 528 -1219 5 -17 21 -78 35 -135 206 -844 212 -1688 18 -2509
-141 -593 -371 -1128 -714 -1659 -40 -61 -75 -111 -78 -111 -3 0 -35 28 -71
63 -75 71 -273 256 -506 472 -88 81 -191 178 -230 214 -38 36 -135 127 -215
201 -80 74 -176 165 -215 201 -78 73 -539 503 -970 904 -154 143 -336 314
-405 381 -69 66 -155 147 -192 180 -37 33 -67 68 -67 79 -1 14 458 479 1491
1512 1262 1262 1497 1493 1521 1493 23 0 34 -11 70 -67z m2804 -1395 c-3 -8
-6 -5 -6 6 -1 11 2 17 5 13 3 -3 4 -12 1 -19z m10 -60 c-3 -8 -6 -5 -6 6 -1
11 2 17 5 13 3 -3 4 -12 1 -19z m40 -280 c-3 -8 -6 -5 -6 6 -1 11 2 17 5 13 3
-3 4 -12 1 -19z m10 -90 c-3 -8 -6 -5 -6 6 -1 11 2 17 5 13 3 -3 4 -12 1 -19z
m10 -100 c-3 -7 -5 -2 -5 12 0 14 2 19 5 13 2 -7 2 -19 0 -25z m10 -110 c-3
-7 -5 -2 -5 12 0 14 2 19 5 13 2 -7 2 -19 0 -25z m10 -145 c-3 -10 -5 -4 -5
12 0 17 2 24 5 18 2 -7 2 -21 0 -30z m10 -220 c-2 -16 -4 -3 -4 27 0 30 2 43
4 28 2 -16 2 -40 0 -55z m0 -540 c-2 -16 -4 -3 -4 27 0 30 2 43 4 28 2 -16 2
-40 0 -55z m-10 -190 c-3 -10 -5 -4 -5 12 0 17 2 24 5 18 2 -7 2 -21 0 -30z
m-10 -140 c-3 -10 -5 -4 -5 12 0 17 2 24 5 18 2 -7 2 -21 0 -30z m-10 -115
c-3 -7 -5 -2 -5 12 0 14 2 19 5 13 2 -7 2 -19 0 -25z m-10 -90 c-3 -8 -6 -5
-6 6 -1 11 2 17 5 13 3 -3 4 -12 1 -19z m-10 -90 c-3 -7 -5 -2 -5 12 0 14 2
19 5 13 2 -7 2 -19 0 -25z m-7013 -628 c62 -60 77 -70 108 -70 30 0 47 -10 95
-52 54 -50 754 -702 1623 -1513 207 -192 523 -487 703 -655 180 -167 327 -307
327 -310 0 -5 -149 -117 -245 -184 -76 -53 -308 -197 -418 -260 -190 -108
-464 -237 -682 -321 -129 -49 -150 -57 -225 -81 -1074 -353 -2225 -359 -3285
-17 -283 92 -704 272 -860 368 -27 17 -66 39 -85 48 -56 27 -173 101 -177 112
-2 6 671 684 1495 1508 1289 1289 1501 1497 1526 1497 21 0 45 -17 100 -70z"/>
</g>
</svg>
